<svg width="177" height="38" viewBox="0 0 177 38" fill="none" xmlns="http://www.w3.org/2000/svg">
<path d="M9.74693 32H3.17293V8.364H11.0009L17.7269 22.804L24.6049 8.364H32.4329V32H25.8209V14.9L20.0829 26.87H15.4089L9.74693 14.976V32ZM44.1729 29.758H56.0289V32H36.5729V8.364H55.5349V10.606H44.1729V18.776H53.9769V21.018H44.1729V29.758ZM77.9964 8.364V10.606H70.6624V32H63.3284V10.606H56.0704V8.364H77.9964ZM86.5785 25.084H94.7485L90.6825 12.696L86.5785 25.084ZM96.9905 32L95.4705 27.326H85.8565L84.2985 32H77.2305L86.1985 8.364H95.2045L104.21 32H96.9905ZM105.399 32V26.794H112.885V32H105.399ZM116.592 8.364H124.192V32H116.592V8.364ZM141.531 28.58V16.99C141.531 16.5087 141.455 16.192 141.303 16.04C141.151 15.888 140.834 15.812 140.353 15.812H136.249C135.767 15.812 135.451 15.888 135.299 16.04C135.147 16.192 135.071 16.5087 135.071 16.99V28.58C135.071 29.0867 135.147 29.416 135.299 29.568C135.451 29.6947 135.767 29.758 136.249 29.758H140.353C140.834 29.758 141.151 29.6947 141.303 29.568C141.455 29.416 141.531 29.0867 141.531 28.58ZM131.119 13.57H145.483C147.484 13.57 148.485 14.5707 148.485 16.572V28.998C148.485 30.9993 147.484 32 145.483 32H131.119C129.117 32 128.117 30.9993 128.117 28.998V16.572C128.117 14.5707 129.117 13.57 131.119 13.57ZM152.14 8.364H171.102C173.104 8.364 174.104 9.36467 174.104 11.366V17.522C174.104 19.194 173.332 20.068 171.786 20.144C173.332 20.2707 174.104 21.132 174.104 22.728V28.998C174.104 30.9993 173.104 32 171.102 32H152.14V8.364ZM167.074 28.808V22.462C167.074 21.9807 166.998 21.664 166.846 21.512C166.694 21.36 166.378 21.284 165.896 21.284H159.474V29.758H165.782C166.644 29.758 167.074 29.4413 167.074 28.808ZM167.074 17.864V11.784C167.074 11.2773 166.998 10.9607 166.846 10.834C166.694 10.682 166.378 10.606 165.896 10.606H159.474V19.042H165.896C166.378 19.042 166.694 18.9787 166.846 18.852C166.998 18.7 167.074 18.3707 167.074 17.864Z" fill="white"/>
</svg>
