<svg width="22" height="22" viewBox="0 0 22 22" fill="none" xmlns="http://www.w3.org/2000/svg">
<path d="M8.48567 13.5915C9.04299 13.5915 9.49478 13.1397 9.49478 12.5824C9.49478 12.025 9.04299 11.5732 8.48567 11.5732C7.92836 11.5732 7.47656 12.025 7.47656 12.5824C7.47656 13.1397 7.92836 13.5915 8.48567 13.5915Z" fill="#858584"/>
<path d="M13.8685 13.5915C14.4258 13.5915 14.8776 13.1397 14.8776 12.5824C14.8776 12.025 14.4258 11.5732 13.8685 11.5732C13.3112 11.5732 12.8594 12.025 12.8594 12.5824C12.8594 13.1397 13.3112 13.5915 13.8685 13.5915Z" fill="#858584"/>
<path fill-rule="evenodd" clip-rule="evenodd" d="M11.1753 7.19938C9.71693 7.1886 8.26578 7.40519 6.87411 7.84135C6.51957 7.95247 6.14209 7.75513 6.03097 7.40059C5.91985 7.04605 6.11719 6.66856 6.47173 6.55745C7.99523 6.07997 9.58377 5.84261 11.1803 5.8539C12.7768 5.84261 14.3653 6.07997 15.8888 6.55745C16.2434 6.66856 16.4407 7.04605 16.3296 7.40059C16.2185 7.75513 15.841 7.95247 15.4864 7.84135C14.0948 7.40519 12.6436 7.1886 11.1853 7.19938H11.1753Z" fill="#858584"/>
<path fill-rule="evenodd" clip-rule="evenodd" d="M6.03097 15.0723C6.14209 14.7178 6.51957 14.5204 6.87411 14.6316C8.26578 15.0677 9.71693 15.2843 11.1753 15.2735H11.1853C12.6436 15.2843 14.0948 15.0677 15.4864 14.6316C15.841 14.5204 16.2185 14.7178 16.3296 15.0723C16.4407 15.4269 16.2434 15.8043 15.8888 15.9155C14.3653 16.3929 12.7768 16.6303 11.1803 16.619C9.58377 16.6303 7.99523 16.3929 6.47173 15.9155C6.11719 15.8043 5.91985 15.4269 6.03097 15.0723Z" fill="#858584"/>
<path fill-rule="evenodd" clip-rule="evenodd" d="M14.0163 3.7097C14.3058 3.54643 14.6454 3.49541 14.9701 3.56634C15.8565 3.75844 16.7243 4.02792 17.5636 4.3717C17.7525 4.44454 17.9221 4.55988 18.0594 4.70884C18.1982 4.85939 18.3 5.04014 18.3569 5.23678L21.2065 14.7523C21.2808 15.0002 21.2825 15.2642 21.2114 15.513C21.1403 15.7619 20.9994 15.9851 20.8053 16.1563L20.8018 16.1594C19.411 17.3696 17.5264 18.2856 15.3858 18.8104C15.0884 18.8861 14.7739 18.8567 14.4958 18.7269C14.2188 18.5976 13.9949 18.3768 13.8618 18.1018L12.8471 16.0893C12.6798 15.7575 12.8132 15.3529 13.145 15.1857C13.4767 15.0184 13.8813 15.1518 14.0485 15.4835L15.0661 17.5018L15.0668 17.5032C17.0432 17.0186 18.7212 16.1863 19.9186 15.1443L20.3602 15.6518L19.9152 15.1474C19.9164 15.1463 19.9172 15.1449 19.9177 15.1434C19.9181 15.1418 19.9181 15.1402 19.9176 15.1387L17.0679 5.6226C17.0655 5.62165 17.0631 5.62069 17.0607 5.61972C16.2919 5.30428 15.4967 5.05714 14.6845 4.88115L14.683 4.88083C14.681 4.88039 14.6789 4.88071 14.6771 4.88172C14.6755 4.88264 14.6742 4.88406 14.6735 4.88576L14.0109 6.89031C13.8943 7.24308 13.5138 7.43453 13.161 7.31792C12.8082 7.20132 12.6168 6.82081 12.7334 6.46804L13.3997 4.45237C13.507 4.13747 13.7265 3.8731 14.0163 3.7097Z" fill="#858584"/>
<path fill-rule="evenodd" clip-rule="evenodd" d="M7.68014 4.88172C7.67834 4.88071 7.67623 4.88039 7.67421 4.88083L7.67275 4.88115C6.86053 5.05714 6.06537 5.30428 5.2965 5.61972C5.29412 5.62069 5.29174 5.62165 5.28936 5.6226L2.43964 15.1385C2.43918 15.14 2.43911 15.1418 2.43955 15.1434C2.43995 15.1448 2.4407 15.146 2.44172 15.147C3.63899 16.1877 5.31573 17.019 7.29045 17.5032L7.29118 17.5018L8.3087 15.4835C8.47596 15.1518 8.8805 15.0184 9.21227 15.1857C9.54403 15.3529 9.67739 15.7575 9.51012 16.0893L8.49546 18.1018C8.36234 18.3768 8.13846 18.5976 7.86144 18.7269C7.58329 18.8567 7.26882 18.8861 6.97148 18.8104C4.83086 18.2856 2.94627 17.3696 1.5554 16.1594L1.55192 16.1563C1.35785 15.9851 1.21694 15.7619 1.14584 15.513C1.07476 15.2642 1.07646 15.0003 1.15072 14.7525C1.15074 14.7524 1.1507 14.7525 1.15072 14.7525L4.00038 5.23679C4.05724 5.04015 4.15906 4.8594 4.29781 4.70884C4.43509 4.55987 4.60477 4.44454 4.79368 4.3717C5.63316 4.02783 6.50121 3.75829 7.38783 3.56618C7.71237 3.49548 8.0516 3.54655 8.34096 3.7097C8.63076 3.8731 8.85025 4.13747 8.95755 4.45238L8.95954 4.45822L9.62384 6.46804C9.74045 6.82081 9.549 7.20131 9.19623 7.31792C8.84346 7.43453 8.46295 7.24308 8.34634 6.89031L7.68375 4.88576C7.68303 4.88406 7.68176 4.88264 7.68014 4.88172Z" fill="#858584"/>
<path d="M8.48567 13.5915C9.04299 13.5915 9.49478 13.1397 9.49478 12.5824C9.49478 12.025 9.04299 11.5732 8.48567 11.5732C7.92836 11.5732 7.47656 12.025 7.47656 12.5824C7.47656 13.1397 7.92836 13.5915 8.48567 13.5915Z" fill="#858584"/>
<path d="M13.8685 13.5915C14.4258 13.5915 14.8776 13.1397 14.8776 12.5824C14.8776 12.025 14.4258 11.5732 13.8685 11.5732C13.3112 11.5732 12.8594 12.025 12.8594 12.5824C12.8594 13.1397 13.3112 13.5915 13.8685 13.5915Z" fill="#858584"/>
<path fill-rule="evenodd" clip-rule="evenodd" d="M11.1753 7.19938C9.71693 7.1886 8.26578 7.40519 6.87411 7.84135C6.51957 7.95247 6.14209 7.75513 6.03097 7.40059C5.91985 7.04605 6.11719 6.66856 6.47173 6.55745C7.99523 6.07997 9.58377 5.84261 11.1803 5.8539C12.7768 5.84261 14.3653 6.07997 15.8888 6.55745C16.2434 6.66856 16.4407 7.04605 16.3296 7.40059C16.2185 7.75513 15.841 7.95247 15.4864 7.84135C14.0948 7.40519 12.6436 7.1886 11.1853 7.19938H11.1753Z" fill="#858584"/>
<path fill-rule="evenodd" clip-rule="evenodd" d="M6.03097 15.0723C6.14209 14.7178 6.51957 14.5204 6.87411 14.6316C8.26578 15.0677 9.71693 15.2843 11.1753 15.2735H11.1853C12.6436 15.2843 14.0948 15.0677 15.4864 14.6316C15.841 14.5204 16.2185 14.7178 16.3296 15.0723C16.4407 15.4269 16.2434 15.8043 15.8888 15.9155C14.3653 16.3929 12.7768 16.6303 11.1803 16.619C9.58377 16.6303 7.99523 16.3929 6.47173 15.9155C6.11719 15.8043 5.91985 15.4269 6.03097 15.0723Z" fill="#858584"/>
<path fill-rule="evenodd" clip-rule="evenodd" d="M14.0163 3.7097C14.3058 3.54643 14.6454 3.49541 14.9701 3.56634C15.8565 3.75844 16.7243 4.02792 17.5636 4.3717C17.7525 4.44454 17.9221 4.55988 18.0594 4.70884C18.1982 4.85939 18.3 5.04014 18.3569 5.23678L21.2065 14.7523C21.2808 15.0002 21.2825 15.2642 21.2114 15.513C21.1403 15.7619 20.9994 15.9851 20.8053 16.1563L20.8018 16.1594C19.411 17.3696 17.5264 18.2856 15.3858 18.8104C15.0884 18.8861 14.7739 18.8567 14.4958 18.7269C14.2188 18.5976 13.9949 18.3768 13.8618 18.1018L12.8471 16.0893C12.6798 15.7575 12.8132 15.3529 13.145 15.1857C13.4767 15.0184 13.8813 15.1518 14.0485 15.4835L15.0661 17.5018L15.0668 17.5032C17.0432 17.0186 18.7212 16.1863 19.9186 15.1443L20.3602 15.6518L19.9152 15.1474C19.9164 15.1463 19.9172 15.1449 19.9177 15.1434C19.9181 15.1418 19.9181 15.1402 19.9176 15.1387L17.0679 5.6226C17.0655 5.62165 17.0631 5.62069 17.0607 5.61972C16.2919 5.30428 15.4967 5.05714 14.6845 4.88115L14.683 4.88083C14.681 4.88039 14.6789 4.88071 14.6771 4.88172C14.6755 4.88264 14.6742 4.88406 14.6735 4.88576L14.0109 6.89031C13.8943 7.24308 13.5138 7.43453 13.161 7.31792C12.8082 7.20132 12.6168 6.82081 12.7334 6.46804L13.3997 4.45237C13.507 4.13747 13.7265 3.8731 14.0163 3.7097Z" fill="#858584"/>
<path fill-rule="evenodd" clip-rule="evenodd" d="M7.68014 4.88172C7.67834 4.88071 7.67623 4.88039 7.67421 4.88083L7.67275 4.88115C6.86053 5.05714 6.06537 5.30428 5.2965 5.61972C5.29412 5.62069 5.29174 5.62165 5.28936 5.6226L2.43964 15.1385C2.43918 15.14 2.43911 15.1418 2.43955 15.1434C2.43995 15.1448 2.4407 15.146 2.44172 15.147C3.63899 16.1877 5.31573 17.019 7.29045 17.5032L7.29118 17.5018L8.3087 15.4835C8.47596 15.1518 8.8805 15.0184 9.21227 15.1857C9.54403 15.3529 9.67739 15.7575 9.51012 16.0893L8.49546 18.1018C8.36234 18.3768 8.13846 18.5976 7.86144 18.7269C7.58329 18.8567 7.26882 18.8861 6.97148 18.8104C4.83086 18.2856 2.94627 17.3696 1.5554 16.1594L1.55192 16.1563C1.35785 15.9851 1.21694 15.7619 1.14584 15.513C1.07476 15.2642 1.07646 15.0003 1.15072 14.7525C1.15074 14.7524 1.1507 14.7525 1.15072 14.7525L4.00038 5.23679C4.05724 5.04015 4.15906 4.8594 4.29781 4.70884C4.43509 4.55987 4.60477 4.44454 4.79368 4.3717C5.63316 4.02783 6.50121 3.75829 7.38783 3.56618C7.71237 3.49548 8.0516 3.54655 8.34096 3.7097C8.63076 3.8731 8.85025 4.13747 8.95755 4.45238L8.95954 4.45822L9.62384 6.46804C9.74045 6.82081 9.549 7.20131 9.19623 7.31792C8.84346 7.43453 8.46295 7.24308 8.34634 6.89031L7.68375 4.88576C7.68303 4.88406 7.68176 4.88264 7.68014 4.88172Z" fill="#858584"/>
</svg>
