<svg width="22" height="22" viewBox="0 0 22 22" fill="none" xmlns="http://www.w3.org/2000/svg">
<path fill-rule="evenodd" clip-rule="evenodd" d="M10.9427 8.54568C9.45651 8.54568 8.25173 9.75046 8.25173 11.2366C8.25173 12.7228 9.45651 13.9276 10.9427 13.9276C12.4289 13.9276 13.6337 12.7228 13.6337 11.2366C13.6337 9.75046 12.4289 8.54568 10.9427 8.54568ZM6.90625 11.2366C6.90625 9.00737 8.71343 7.2002 10.9427 7.2002C13.172 7.2002 14.9791 9.00737 14.9791 11.2366C14.9791 13.4659 13.172 15.2731 10.9427 15.2731C8.71343 15.2731 6.90625 13.4659 6.90625 11.2366Z" fill="#858584"/>
<path fill-rule="evenodd" clip-rule="evenodd" d="M7.24434 4.17263C5.38662 4.17263 3.88064 5.67861 3.88064 7.53633V14.9365C3.88064 16.7942 5.38662 18.3002 7.24434 18.3002H14.6445C16.5022 18.3002 18.0082 16.7942 18.0082 14.9365V7.53633C18.0082 5.67861 16.5022 4.17263 14.6445 4.17263H7.24434ZM2.53516 7.53633C2.53516 4.93552 4.64353 2.82715 7.24434 2.82715H14.6445C17.2453 2.82715 19.3537 4.93552 19.3537 7.53633V14.9365C19.3537 17.5373 17.2453 19.6457 14.6445 19.6457H7.24434C4.64353 19.6457 2.53516 17.5373 2.53516 14.9365V7.53633Z" fill="#858584"/>
<path d="M15.3177 7.87271C15.875 7.87271 16.3268 7.42092 16.3268 6.8636C16.3268 6.30629 15.875 5.85449 15.3177 5.85449C14.7604 5.85449 14.3086 6.30629 14.3086 6.8636C14.3086 7.42092 14.7604 7.87271 15.3177 7.87271Z" fill="#858584"/>
</svg>
