<svg width="23" height="22" viewBox="0 0 23 22" fill="none" xmlns="http://www.w3.org/2000/svg">
<path fill-rule="evenodd" clip-rule="evenodd" d="M9.76936 7.95265C9.98811 7.83558 10.2535 7.84841 10.46 7.98603L14.4964 10.677C14.6836 10.8018 14.796 11.0118 14.796 11.2367C14.796 11.4617 14.6836 11.6717 14.4964 11.7965L10.46 14.4875C10.2535 14.6251 9.98811 14.6379 9.76936 14.5208C9.55062 14.4038 9.41406 14.1758 9.41406 13.9277V8.54579C9.41406 8.29768 9.55062 8.06972 9.76936 7.95265ZM10.7595 9.80282V12.6707L12.9104 11.2367L10.7595 9.80282Z" fill="#858584"/>
<path fill-rule="evenodd" clip-rule="evenodd" d="M11.4291 3.87015L11.4177 3.87012L11.3755 3.87014C11.3388 3.87022 11.2854 3.87048 11.2169 3.87121C11.0799 3.87267 10.8822 3.87597 10.6366 3.88334C10.1459 3.89806 9.46202 3.92911 8.68778 3.99447C7.15638 4.12377 5.20675 4.3921 3.70573 4.96562L3.69584 4.96949C3.401 5.08751 3.13802 5.27318 2.92811 5.51151C2.71821 5.74984 2.56725 6.03417 2.48742 6.34156L2.48677 6.34409C2.27727 7.16386 2.01172 8.68404 2.01172 11.2367C2.01172 13.7893 2.27727 15.3095 2.48677 16.1292L2.48742 16.1318C2.56725 16.4392 2.71821 16.7235 2.92811 16.9618C3.13802 17.2001 3.401 17.3858 3.69584 17.5038L3.70573 17.5077C5.20675 18.0812 7.15638 18.3496 8.68778 18.4789C9.46202 18.5442 10.1459 18.5753 10.6366 18.59C10.8822 18.5974 11.0799 18.6007 11.2169 18.6021C11.2854 18.6028 11.3388 18.6031 11.3755 18.6032L11.4177 18.6032L11.4291 18.6032H11.4311L11.4424 18.6032L11.4847 18.6032C11.5213 18.6031 11.5747 18.6028 11.6433 18.6021C11.7803 18.6007 11.978 18.5974 12.2235 18.59C12.7142 18.5753 13.3981 18.5442 14.1724 18.4789C15.7038 18.3496 17.6534 18.0812 19.1544 17.5077L19.1643 17.5038C19.4592 17.3858 19.7221 17.2001 19.9321 16.9618C20.142 16.7235 20.2929 16.4392 20.3727 16.1318L20.3734 16.1292C20.5829 15.3095 20.8484 13.7893 20.8484 11.2367C20.8484 8.68404 20.5829 7.16386 20.3734 6.34409L20.3727 6.34156C20.2929 6.03416 20.142 5.74984 19.9321 5.51151C19.7221 5.27318 19.4592 5.08751 19.1643 4.96949L19.1544 4.96562C17.6534 4.3921 15.7038 4.12377 14.1724 3.99447C13.3981 3.92911 12.7142 3.89806 12.2235 3.88334C11.978 3.87597 11.7803 3.87267 11.6433 3.87121C11.5747 3.87048 11.5213 3.87022 11.4847 3.87014L11.4424 3.87012L11.4311 3.87015H11.4291ZM11.4265 17.2577L11.4337 17.2577L11.4359 17.2577L11.4447 17.2577L11.4817 17.2577C11.5148 17.2576 11.5644 17.2574 11.629 17.2567C11.7582 17.2553 11.9471 17.2522 12.1832 17.2451C12.6556 17.2309 13.3145 17.201 14.0592 17.1381C15.5635 17.0111 17.353 16.7544 18.6685 16.253C18.7659 16.2133 18.8528 16.1515 18.9224 16.0725C18.9927 15.9927 19.0433 15.8975 19.0702 15.7946C19.2475 15.1002 19.503 13.6942 19.503 11.2367C19.503 8.7791 19.2475 7.37311 19.0702 6.6787C19.0433 6.57579 18.9927 6.48061 18.9224 6.40079C18.8528 6.32181 18.7659 6.26005 18.6685 6.22031C17.353 5.71888 15.5635 5.46219 14.0592 5.33519C13.3145 5.27231 12.6556 5.24239 12.1832 5.22821C11.9471 5.22113 11.7582 5.21799 11.629 5.21662C11.5644 5.21593 11.5148 5.21569 11.4817 5.21561L11.4447 5.2156L11.4359 5.21562L11.434 5.21563L11.4264 5.21567L11.4243 5.21562L11.4155 5.2156L11.3785 5.21561C11.3454 5.21569 11.2958 5.21593 11.2312 5.21662C11.102 5.21799 10.913 5.22113 10.677 5.22821C10.2046 5.24239 9.54565 5.27231 8.80098 5.33519C7.2967 5.46219 5.50721 5.71888 4.19166 6.22031C4.09426 6.26005 4.00737 6.32182 3.93782 6.40079C3.86751 6.48061 3.81688 6.57579 3.78998 6.6787C3.61266 7.37311 3.3572 8.7791 3.3572 11.2367C3.3572 13.6942 3.61266 15.1002 3.78998 15.7946C3.81688 15.8975 3.86751 15.9927 3.93782 16.0725C4.00737 16.1515 4.09426 16.2133 4.19165 16.253C5.50721 16.7544 7.2967 17.0111 8.80098 17.1381C9.54565 17.201 10.2046 17.2309 10.677 17.2451C10.913 17.2522 11.102 17.2553 11.2312 17.2567C11.2958 17.2574 11.3454 17.2576 11.3785 17.2577L11.4155 17.2577L11.4243 17.2577L11.4265 17.2577Z" fill="#858584"/>
</svg>
