<svg width="23" height="22" viewBox="0 0 23 22" fill="none" xmlns="http://www.w3.org/2000/svg">
<path d="M11.6903 7.8728C11.6903 6.02276 13.246 4.48387 15.0961 4.50909C15.7439 4.51657 16.3759 4.71102 16.9159 5.06905C17.4559 5.42708 17.8811 5.93346 18.1402 6.52732H21.1087L18.3925 9.24351C18.2172 11.9719 17.0094 14.5312 15.0146 16.401C13.0199 18.2708 10.3879 19.3107 7.65386 19.3094C4.9629 19.3094 4.29016 18.3003 4.29016 18.3003C4.29016 18.3003 6.98112 17.2912 8.3266 15.2729C8.3266 15.2729 2.94468 12.582 4.29016 5.18184C4.29016 5.18184 7.65386 8.54554 11.6903 9.21828V7.8728Z" stroke="#858584" stroke-width="1.34548" stroke-linecap="round" stroke-linejoin="round"/>
</svg>
