<svg width="64" height="38" viewBox="0 0 64 38" fill="none" xmlns="http://www.w3.org/2000/svg">
<path d="M9.54482 32H2.97082V8.364H10.7988L17.5248 22.804L24.4028 8.364H32.2308V32H25.6188V14.9L19.8808 26.87H15.2068L9.54482 14.976V32ZM38.9927 28.58V16.99C38.9927 16.5087 38.9167 16.192 38.7647 16.04C38.6127 15.888 38.2961 15.812 37.8147 15.812H33.7107C33.2294 15.812 32.9127 15.888 32.7607 16.04C32.6087 16.192 32.5327 16.5087 32.5327 16.99V28.58C32.5327 29.0867 32.6087 29.416 32.7607 29.568C32.9127 29.6947 33.2294 29.758 33.7107 29.758H37.8147C38.2961 29.758 38.6127 29.6947 38.7647 29.568C38.9167 29.416 38.9927 29.0867 38.9927 28.58ZM28.5807 13.57H42.9447C44.9461 13.57 45.9467 14.5707 45.9467 16.572V28.998C45.9467 30.9993 44.9461 32 42.9447 32H28.5807C26.5794 32 25.5787 30.9993 25.5787 28.998V16.572C25.5787 14.5707 26.5794 13.57 28.5807 13.57ZM39.3425 8.364H58.3045C60.3058 8.364 61.3065 9.36467 61.3065 11.366V17.522C61.3065 19.194 60.5338 20.068 58.9885 20.144C60.5338 20.2707 61.3065 21.132 61.3065 22.728V28.998C61.3065 30.9993 60.3058 32 58.3045 32H39.3425V8.364ZM54.2765 28.808V22.462C54.2765 21.9807 54.2005 21.664 54.0485 21.512C53.8965 21.36 53.5798 21.284 53.0985 21.284H46.6765V29.758H52.9845C53.8458 29.758 54.2765 29.4413 54.2765 28.808ZM54.2765 17.864V11.784C54.2765 11.2773 54.2005 10.9607 54.0485 10.834C53.8965 10.682 53.5798 10.606 53.0985 10.606H46.6765V19.042H53.0985C53.5798 19.042 53.8965 18.9787 54.0485 18.852C54.2005 18.7 54.2765 18.3707 54.2765 17.864Z" fill="#2B2B2B"/>
</svg>
